<mxfile host="app.diagrams.net" modified="2023-06-02T01:42:41.073Z" agent="Mozilla/5.0 (Windows NT 10.0; Win64; x64; rv:109.0) Gecko/20100101 Firefox/113.0" version="21.3.2" etag="Vr25y72DUTCuN4EhLKmL" type="github">
  <diagram name="Page-1" id="HU4d7chx-H7WpXjFuTSt">
    <mxGraphModel>
      <root>
        <mxCell id="0" />
        <mxCell id="1" parent="0" />
      </root>
    </mxGraphModel>
  </diagram>
</mxfile>
